<svg width="318" height="95" viewBox="0 0 318 95" fill="none" xmlns="http://www.w3.org/2000/svg">
<path d="M0 0H109V95H0V0Z" fill="#D9D9D9"/>
<path d="M21.6397 27.9412C21.6397 21.3277 27.0222 15.9664 33.6618 15.9664V79.0336H21.6397V27.9412Z" fill="black"/>
<path d="M66.411 26.3445C71.1059 31.021 71.1059 38.603 66.411 43.2794L34.391 75.1735C32.0436 77.5117 28.2376 77.5118 25.8901 75.1735C23.5427 72.8353 23.5427 69.0443 25.8901 66.7061L66.411 26.3445Z" fill="black"/>
<path d="M87.3603 67.0588C87.3603 73.6723 81.9778 79.0336 75.3382 79.0336H24.0441V67.0588H87.3603Z" fill="black"/>
<path d="M139.352 2V28.592H153.992V35.6H131V2H139.352Z" fill="#D9D9D9"/>
<path d="M182.684 9.008H165.836V15.296H178.412V21.824H165.836V28.592H182.684V35.6H157.484V2H182.684V9.008Z" fill="#D9D9D9"/>
<path d="M195.368 35.6H187.016V2H196.904L206.12 24.8L215.336 2H225.224V35.6H216.872V16.352L209.528 35.6H202.712L195.368 16.352V35.6Z" fill="#D9D9D9"/>
<path d="M230.372 2H238.724V22.736C238.724 24.016 238.98 25.12 239.492 26.048C240.004 26.944 240.724 27.632 241.652 28.112C242.58 28.56 243.668 28.784 244.916 28.784C246.196 28.784 247.316 28.56 248.276 28.112C249.236 27.632 249.972 26.944 250.484 26.048C251.028 25.12 251.3 24.016 251.3 22.736V2H259.652V21.968C259.652 24.304 259.252 26.352 258.452 28.112C257.652 29.84 256.548 31.296 255.14 32.48C253.764 33.632 252.18 34.496 250.388 35.072C248.596 35.648 246.724 35.936 244.772 35.936C242.148 35.936 239.748 35.424 237.572 34.4C235.396 33.344 233.652 31.792 232.34 29.744C231.028 27.664 230.372 25.072 230.372 21.968V2Z" fill="#D9D9D9"/>
<path d="M289.981 9.008H273.133V15.296H285.709V21.824H273.133V28.592H289.981V35.6H264.781V2H289.981V9.008Z" fill="#D9D9D9"/>
<path d="M302.665 2V28.592H317.305V35.6H294.312V2H302.665Z" fill="#D9D9D9"/>
<path d="M139.352 60V86.592H153.992V93.6H131V60H139.352Z" fill="#D9D9D9"/>
<path d="M165.836 60V86.592H180.476V93.6H157.484V60H165.836Z" fill="#D9D9D9"/>
<path d="M199.953 93.936C197.553 93.936 195.313 93.52 193.233 92.688C191.153 91.856 189.313 90.688 187.713 89.184C186.145 87.648 184.913 85.84 184.017 83.76C183.121 81.648 182.673 79.328 182.673 76.8C182.673 74.272 183.121 71.968 184.017 69.888C184.913 67.776 186.145 65.968 187.713 64.464C189.313 62.928 191.153 61.744 193.233 60.912C195.313 60.08 197.553 59.664 199.953 59.664C202.353 59.664 204.593 60.08 206.673 60.912C208.785 61.744 210.625 62.928 212.193 64.464C213.761 65.968 214.993 67.776 215.889 69.888C216.785 71.968 217.233 74.272 217.233 76.8C217.233 79.328 216.785 81.648 215.889 83.76C214.993 85.84 213.745 87.648 212.145 89.184C210.577 90.688 208.753 91.856 206.673 92.688C204.593 93.52 202.353 93.936 199.953 93.936ZM199.953 86.784C201.713 86.784 203.249 86.352 204.561 85.488C205.873 84.624 206.897 83.44 207.633 81.936C208.369 80.432 208.737 78.72 208.737 76.8C208.737 74.848 208.369 73.136 207.633 71.664C206.897 70.16 205.873 68.976 204.561 68.112C203.249 67.248 201.713 66.816 199.953 66.816C198.161 66.816 196.609 67.248 195.297 68.112C193.985 68.976 192.961 70.16 192.225 71.664C191.521 73.136 191.169 74.848 191.169 76.8C191.169 78.72 191.521 80.432 192.225 81.936C192.961 83.44 193.985 84.624 195.297 85.488C196.609 86.352 198.161 86.784 199.953 86.784Z" fill="#D9D9D9"/>
<path d="M240.579 70.944C240.579 69.728 240.212 68.768 239.476 68.064C238.74 67.36 237.62 67.008 236.116 67.008H229.539V74.928H236.116C237.108 74.928 237.923 74.784 238.563 74.496C239.235 74.176 239.731 73.712 240.051 73.104C240.403 72.496 240.579 71.776 240.579 70.944ZM236.644 60C239.428 60 241.732 60.512 243.556 61.536C245.412 62.528 246.788 63.856 247.684 65.52C248.612 67.184 249.076 68.992 249.076 70.944C249.076 72.288 248.82 73.616 248.308 74.928C247.828 76.24 247.075 77.424 246.051 78.48C245.059 79.536 243.78 80.384 242.212 81.024C240.644 81.632 238.788 81.936 236.644 81.936H229.539V93.6H221.188V60H236.644ZM240.868 79.056L249.7 93.6H240.483L232.132 79.056H240.868Z" fill="#D9D9D9"/>
<path d="M278.872 67.008H262.024V73.296H274.6V79.824H262.024V86.592H278.872V93.6H253.672V60H278.872V67.008Z" fill="#D9D9D9"/>
<path d="M312.483 60V93.6H304.083L291.555 73.248V93.6H283.203V60H291.603L304.131 80.496V60H312.483Z" fill="#D9D9D9"/>
</svg>
